<svg xmlns = "http://www.w3.org/2000/svg" width = "1000" height = "1000">
<g>
<circle cx = "586.501" cy = "684.622" r="2"/></g>
<g>
<circle cx = "788.647" cy = "810.408" r="2"/></g>
<g>
<circle cx = "194.164" cy = "653.071" r="2"/></g>
<g>
<circle cx = "297.002" cy = "654.279" r="2"/></g>
<g>
<circle cx = "668.422" cy = "923.018" r="2"/></g>
<g>
<circle cx = "304.365" cy = "132.273" r="2"/></g>
<g>
<circle cx = "539.190" cy = "730.712" r="2"/></g>
<g>
<circle cx = "621.980" cy = "988.094" r="2"/></g>
<g>
<circle cx = "282.342" cy = "525.355" r="2"/></g>
<g>
<circle cx = "653.387" cy = "435.895" r="2"/></g>
<g>
<circle cx = "533.558" cy = "174.497" r="2"/></g>
<g>
<circle cx = "847.071" cy = "273.141" r="2"/></g>
<g>
<circle cx = "777.318" cy = "635.886" r="2"/></g>
<g>
<circle cx = "665.072" cy = "250.932" r="2"/></g>
<g>
<circle cx = "605.643" cy = "23.437" r="2"/></g>
<g>
<circle cx = "190.329" cy = "954.771" r="2"/></g>
<g>
<circle cx = "907.329" cy = "60.233" r="2"/></g>
<g>
<circle cx = "841.421" cy = "262.509" r="2"/></g>
<g>
<circle cx = "644.458" cy = "861.826" r="2"/></g>
<g>
<circle cx = "702.045" cy = "499.160" r="2"/></g>
<g>
<circle cx = "884.553" cy = "746.346" r="2"/></g>
<g>
<circle cx = "254.120" cy = "704.566" r="2"/></g>
<g>
<circle cx = "63.218" cy = "114.278" r="2"/></g>
<g>
<circle cx = "459.816" cy = "867.263" r="2"/></g>
<g>
<circle cx = "153.946" cy = "584.894" r="2"/></g>
<g>
<circle cx = "783.277" cy = "320.826" r="2"/></g>
<g>
<circle cx = "330.538" cy = "283.452" r="2"/></g>
<g>
<circle cx = "482.927" cy = "15.199" r="2"/></g>
<g>
<circle cx = "420.396" cy = "92.625" r="2"/></g>
<g>
<circle cx = "304.273" cy = "872.485" r="2"/></g>
<g>
<circle cx = "142.933" cy = "254.119" r="2"/></g>
<g>
<circle cx = "399.108" cy = "901.804" r="2"/></g>
<g>
<circle cx = "520.587" cy = "824.605" r="2"/></g>
<g>
<circle cx = "877.253" cy = "186.538" r="2"/></g>
<g>
<circle cx = "455.757" cy = "524.670" r="2"/></g>
<g>
<circle cx = "481.516" cy = "445.912" r="2"/></g>
<g>
<circle cx = "648.987" cy = "912.333" r="2"/></g>
<g>
<circle cx = "610.951" cy = "114.855" r="2"/></g>
<g>
<circle cx = "292.692" cy = "2.428" r="2"/></g>
<g>
<circle cx = "30.730" cy = "487.463" r="2"/></g>
<g>
<circle cx = "32.503" cy = "235.682" r="2"/></g>
<g>
<circle cx = "420.210" cy = "983.265" r="2"/></g>
<g>
<circle cx = "856.484" cy = "896.870" r="2"/></g>
<g>
<circle cx = "653.390" cy = "378.014" r="2"/></g>
<g>
<circle cx = "553.073" cy = "648.906" r="2"/></g>
<g>
<circle cx = "316.744" cy = "476.998" r="2"/></g>
<g>
<circle cx = "89.219" cy = "847.516" r="2"/></g>
<g>
<circle cx = "59.559" cy = "391.402" r="2"/></g>
<g>
<circle cx = "622.450" cy = "824.385" r="2"/></g>
<g>
<circle cx = "246.974" cy = "672.613" r="2"/></g>
<g>
<circle cx = "544.149" cy = "977.934" r="2"/></g>
<g>
<circle cx = "144.347" cy = "106.838" r="2"/></g>
<g>
<circle cx = "765.657" cy = "859.715" r="2"/></g>
<g>
<circle cx = "156.423" cy = "702.523" r="2"/></g>
<g>
<circle cx = "190.924" cy = "934.645" r="2"/></g>
<g>
<circle cx = "651.939" cy = "750.126" r="2"/></g>
<g>
<circle cx = "820.491" cy = "110.568" r="2"/></g>
<g>
<circle cx = "900.187" cy = "833.661" r="2"/></g>
<g>
<circle cx = "893.625" cy = "608.050" r="2"/></g>
<g>
<circle cx = "146.595" cy = "539.766" r="2"/></g>
<g>
<circle cx = "66.499" cy = "602.744" r="2"/></g>
<g>
<circle cx = "536.045" cy = "884.810" r="2"/></g>
<g>
<circle cx = "8.790" cy = "836.496" r="2"/></g>
<g>
<circle cx = "177.237" cy = "726.650" r="2"/></g>
<g>
<circle cx = "364.199" cy = "194.380" r="2"/></g>
<g>
<circle cx = "817.376" cy = "712.920" r="2"/></g>
<g>
<circle cx = "135.468" cy = "704.282" r="2"/></g>
<g>
<circle cx = "475.451" cy = "111.768" r="2"/></g>
<g>
<circle cx = "840.350" cy = "307.853" r="2"/></g>
<g>
<circle cx = "821.559" cy = "161.348" r="2"/></g>
<g>
<circle cx = "832.358" cy = "886.838" r="2"/></g>
<g>
<circle cx = "981.437" cy = "802.739" r="2"/></g>
<g>
<circle cx = "577.312" cy = "231.196" r="2"/></g>
<g>
<circle cx = "16.374" cy = "428.313" r="2"/></g>
<g>
<circle cx = "947.698" cy = "652.826" r="2"/></g>
<g>
<circle cx = "334.299" cy = "470.596" r="2"/></g>
<g>
<circle cx = "187.779" cy = "17.834" r="2"/></g>
<g>
<circle cx = "261.233" cy = "825.631" r="2"/></g>
<g>
<circle cx = "29.894" cy = "120.111" r="2"/></g>
<g>
<circle cx = "602.257" cy = "383.123" r="2"/></g>
<g>
<circle cx = "160.073" cy = "431.642" r="2"/></g>
<g>
<circle cx = "881.191" cy = "714.517" r="2"/></g>
<g>
<circle cx = "702.263" cy = "691.522" r="2"/></g>
<g>
<circle cx = "878.312" cy = "531.341" r="2"/></g>
<g>
<circle cx = "539.223" cy = "217.368" r="2"/></g>
<g>
<circle cx = "286.084" cy = "237.631" r="2"/></g>
<g>
<circle cx = "401.631" cy = "552.472" r="2"/></g>
<g>
<circle cx = "613.555" cy = "395.658" r="2"/></g>
<g>
<circle cx = "503.939" cy = "943.603" r="2"/></g>
<g>
<circle cx = "228.077" cy = "561.824" r="2"/></g>
<g>
<circle cx = "429.789" cy = "850.494" r="2"/></g>
<g>
<circle cx = "700.867" cy = "821.523" r="2"/></g>
<g>
<circle cx = "557.516" cy = "560.246" r="2"/></g>
<g>
<circle cx = "69.500" cy = "779.163" r="2"/></g>
<g>
<circle cx = "517.101" cy = "633.616" r="2"/></g>
<g>
<circle cx = "538.627" cy = "43.208" r="2"/></g>
<g>
<circle cx = "799.169" cy = "957.461" r="2"/></g>
<g>
<circle cx = "466.791" cy = "966.988" r="2"/></g>
<g>
<circle cx = "184.784" cy = "936.583" r="2"/></g>
<g>
<circle cx = "158.259" cy = "559.773" r="2"/></g>
<g>
<polygon points = ""
fill = "none" stroke = "black"/>
</g>
<g>
<polygon points = ""
fill = "none" stroke = "black"/>
</g>
<g>
<polygon points = "30.708, 601.012 193.957, 532.474 265.126, 587.129 263.215, 749.839 193.834, 776.805 145.777, 750.868 11.907, 648.703 "
fill = "none" stroke = "black"/>
</g>
<g>
<polygon points = "320.420, 598.357 413.757, 694.282 404.700, 722.979 346.752, 767.277 263.215, 749.839 265.126, 587.129 "
fill = "none" stroke = "black"/>
</g>
<g>
<polygon points = ""
fill = "none" stroke = "black"/>
</g>
<g>
<polygon points = ""
fill = "none" stroke = "black"/>
</g>
<g>
<polygon points = "462.598, 656.588 653.392, 688.967 577.779, 823.586 404.700, 722.979 413.757, 694.282 "
fill = "none" stroke = "black"/>
</g>
<g>
<polygon points = ""
fill = "none" stroke = "black"/>
</g>
<g>
<polygon points = ""
fill = "none" stroke = "black"/>
</g>
<g>
<polygon points = "756.703, 279.420 831.469, 363.817 836.978, 371.861 586.355, 564.621 536.201, 541.002 501.921, 466.974 494.783, 344.497 649.025, 263.918 740.866, 269.720 "
fill = "none" stroke = "black"/>
</g>
<g>
<polygon points = "401.932, 184.442 468.086, 93.005 498.383, 64.939 691.226, 156.963 692.519, 185.266 650.907, 256.863 435.335, 285.346 407.742, 233.931 "
fill = "none" stroke = "black"/>
</g>
<g>
<polygon points = ""
fill = "none" stroke = "black"/>
</g>
<g>
<polygon points = "785.342, 617.673 694.352, 664.989 687.849, 662.311 797.070, 602.181 "
fill = "none" stroke = "black"/>
</g>
<g>
<polygon points = "740.866, 269.720 649.025, 263.918 650.907, 256.863 692.519, 185.266 "
fill = "none" stroke = "black"/>
</g>
<g>
<polygon points = "745.942, 71.300 691.226, 156.963 498.383, 64.939 484.804, 44.924 470.665, 7.067 471.139, 0.000 754.638, 0.000 "
fill = "none" stroke = "black"/>
</g>
<g>
<polygon points = ""
fill = "none" stroke = "black"/>
</g>
<g>
<polygon points = "838.074, 149.451 745.942, 71.300 754.638, 0.000 1000.000, 0.000 1000.000, 188.009 "
fill = "none" stroke = "black"/>
</g>
<g>
<polygon points = ""
fill = "none" stroke = "black"/>
</g>
<g>
<polygon points = ""
fill = "none" stroke = "black"/>
</g>
<g>
<polygon points = "890.554, 410.594 866.053, 544.797 797.070, 602.181 687.849, 662.311 684.539, 662.299 586.355, 564.621 836.978, 371.861 "
fill = "none" stroke = "black"/>
</g>
<g>
<polygon points = ""
fill = "none" stroke = "black"/>
</g>
<g>
<polygon points = ""
fill = "none" stroke = "black"/>
</g>
<g>
<polygon points = ""
fill = "none" stroke = "black"/>
</g>
<g>
<polygon points = "578.437, 827.053 578.112, 828.466 404.440, 928.845 336.586, 905.678 322.812, 881.469 346.752, 767.277 404.700, 722.979 577.779, 823.586 "
fill = "none" stroke = "black"/>
</g>
<g>
<polygon points = ""
fill = "none" stroke = "black"/>
</g>
<g>
<polygon points = "831.469, 363.817 756.703, 279.420 777.079, 284.312 820.266, 314.535 "
fill = "none" stroke = "black"/>
</g>
<g>
<polygon points = "445.815, 318.439 282.321, 321.725 302.280, 194.075 407.742, 233.931 435.335, 285.346 "
fill = "none" stroke = "black"/>
</g>
<g>
<polygon points = "470.665, 7.067 461.914, 0.000 471.139, 0.000 "
fill = "none" stroke = "black"/>
</g>
<g>
<polygon points = "470.665, 7.067 484.804, 44.924 468.086, 93.005 401.932, 184.442 336.552, 148.334 441.319, 0.000 461.914, 0.000 "
fill = "none" stroke = "black"/>
</g>
<g>
<polygon points = ""
fill = "none" stroke = "black"/>
</g>
<g>
<polygon points = "126.242, 79.905 153.100, 80.163 294.191, 164.114 302.280, 194.075 282.321, 321.725 161.444, 428.581 22.659, 327.749 53.841, 140.977 "
fill = "none" stroke = "black"/>
</g>
<g>
<polygon points = "304.902, 913.886 322.812, 881.469 336.586, 905.678 "
fill = "none" stroke = "black"/>
</g>
<g>
<polygon points = ""
fill = "none" stroke = "black"/>
</g>
<g>
<polygon points = "820.266, 314.535 777.079, 284.312 838.074, 149.451 1000.000, 188.009 1000.000, 369.208 "
fill = "none" stroke = "black"/>
</g>
<g>
<polygon points = ""
fill = "none" stroke = "black"/>
</g>
<g>
<polygon points = "490.549, 458.448 470.411, 338.343 494.783, 344.497 501.921, 466.974 "
fill = "none" stroke = "black"/>
</g>
<g>
<polygon points = "589.473, 845.620 750.389, 937.552 764.831, 969.575 767.099, 1000.000 622.754, 1000.000 "
fill = "none" stroke = "black"/>
</g>
<g>
<polygon points = ""
fill = "none" stroke = "black"/>
</g>
<g>
<polygon points = "336.552, 148.334 294.191, 164.114 153.100, 80.163 131.507, 49.483 124.240, 0.000 441.319, 0.000 "
fill = "none" stroke = "black"/>
</g>
<g>
<polygon points = ""
fill = "none" stroke = "black"/>
</g>
<g>
<polygon points = "53.841, 140.977 22.659, 327.749 0.000, 325.852 0.000, 142.193 "
fill = "none" stroke = "black"/>
</g>
<g>
<polygon points = "294.452, 924.426 304.902, 913.886 336.586, 905.678 404.440, 928.845 438.146, 1000.000 278.426, 1000.000 "
fill = "none" stroke = "black"/>
</g>
<g>
<polygon points = "767.099, 1000.000 764.831, 969.575 823.863, 825.269 910.983, 837.074 1000.000, 955.239 1000.000, 1000.000 "
fill = "none" stroke = "black"/>
</g>
<g>
<polygon points = ""
fill = "none" stroke = "black"/>
</g>
<g>
<polygon points = "536.201, 541.002 586.355, 564.621 684.539, 662.299 653.392, 688.967 462.598, 656.588 "
fill = "none" stroke = "black"/>
</g>
<g>
<polygon points = ""
fill = "none" stroke = "black"/>
</g>
<g>
<polygon points = "54.450, 708.538 145.777, 750.868 193.834, 776.805 205.301, 866.928 91.300, 1000.000 14.516, 1000.000 "
fill = "none" stroke = "black"/>
</g>
<g>
<polygon points = ""
fill = "none" stroke = "black"/>
</g>
<g>
<polygon points = ""
fill = "none" stroke = "black"/>
</g>
<g>
<polygon points = ""
fill = "none" stroke = "black"/>
</g>
<g>
<polygon points = ""
fill = "none" stroke = "black"/>
</g>
<g>
<polygon points = "122.187, 44.935 131.507, 49.483 153.100, 80.163 126.242, 79.905 "
fill = "none" stroke = "black"/>
</g>
<g>
<polygon points = "818.903, 821.323 823.863, 825.269 764.831, 969.575 750.389, 937.552 "
fill = "none" stroke = "black"/>
</g>
<g>
<polygon points = "5.440, 654.531 11.907, 648.703 145.777, 750.868 54.450, 708.538 "
fill = "none" stroke = "black"/>
</g>
<g>
<polygon points = "205.301, 866.928 294.452, 924.426 278.426, 1000.000 91.300, 1000.000 "
fill = "none" stroke = "black"/>
</g>
<g>
<polygon points = ""
fill = "none" stroke = "black"/>
</g>
<g>
<polygon points = ""
fill = "none" stroke = "black"/>
</g>
<g>
<polygon points = ""
fill = "none" stroke = "black"/>
</g>
<g>
<polygon points = ""
fill = "none" stroke = "black"/>
</g>
<g>
<polygon points = "26.626, 595.821 159.913, 440.089 193.957, 532.474 30.708, 601.012 "
fill = "none" stroke = "black"/>
</g>
<g>
<polygon points = "26.626, 595.821 30.708, 601.012 11.907, 648.703 5.440, 654.531 0.000, 653.188 0.000, 603.473 "
fill = "none" stroke = "black"/>
</g>
<g>
<polygon points = "579.210, 829.065 578.112, 828.466 578.437, 827.053 "
fill = "none" stroke = "black"/>
</g>
<g>
<polygon points = "5.440, 654.531 54.450, 708.538 14.516, 1000.000 0.000, 1000.000 0.000, 653.188 "
fill = "none" stroke = "black"/>
</g>
<g>
<polygon points = ""
fill = "none" stroke = "black"/>
</g>
<g>
<polygon points = "294.191, 164.114 336.552, 148.334 401.932, 184.442 407.742, 233.931 302.280, 194.075 "
fill = "none" stroke = "black"/>
</g>
<g>
<polygon points = "781.811, 758.815 694.352, 664.989 785.342, 617.673 "
fill = "none" stroke = "black"/>
</g>
<g>
<polygon points = ""
fill = "none" stroke = "black"/>
</g>
<g>
<polygon points = "484.804, 44.924 498.383, 64.939 468.086, 93.005 "
fill = "none" stroke = "black"/>
</g>
<g>
<polygon points = "890.554, 410.594 836.978, 371.861 831.469, 363.817 820.266, 314.535 1000.000, 369.208 1000.000, 392.003 "
fill = "none" stroke = "black"/>
</g>
<g>
<polygon points = "838.074, 149.451 777.079, 284.312 756.703, 279.420 740.866, 269.720 692.519, 185.266 691.226, 156.963 745.942, 71.300 "
fill = "none" stroke = "black"/>
</g>
<g>
<polygon points = ""
fill = "none" stroke = "black"/>
</g>
<g>
<polygon points = "910.983, 837.074 1000.000, 735.924 1000.000, 955.239 "
fill = "none" stroke = "black"/>
</g>
<g>
<polygon points = ""
fill = "none" stroke = "black"/>
</g>
<g>
<polygon points = "22.659, 327.749 161.444, 428.581 159.913, 440.089 26.626, 595.821 0.000, 603.473 0.000, 325.852 "
fill = "none" stroke = "black"/>
</g>
<g>
<polygon points = "894.343, 544.352 1000.000, 484.006 1000.000, 658.257 "
fill = "none" stroke = "black"/>
</g>
<g>
<polygon points = "159.913, 440.089 161.444, 428.581 282.321, 321.725 445.815, 318.439 470.411, 338.343 490.549, 458.448 320.420, 598.357 265.126, 587.129 193.957, 532.474 "
fill = "none" stroke = "black"/>
</g>
<g>
<polygon points = "131.507, 49.483 122.187, 44.935 93.078, 0.000 124.240, 0.000 "
fill = "none" stroke = "black"/>
</g>
<g>
<polygon points = "322.812, 881.469 304.902, 913.886 294.452, 924.426 205.301, 866.928 193.834, 776.805 263.215, 749.839 346.752, 767.277 "
fill = "none" stroke = "black"/>
</g>
<g>
<polygon points = "122.187, 44.935 126.242, 79.905 53.841, 140.977 0.000, 142.193 0.000, 0.000 93.078, 0.000 "
fill = "none" stroke = "black"/>
</g>
<g>
<polygon points = ""
fill = "none" stroke = "black"/>
</g>
<g>
<polygon points = ""
fill = "none" stroke = "black"/>
</g>
<g>
<polygon points = "910.983, 837.074 823.863, 825.269 818.903, 821.323 781.811, 758.815 785.342, 617.673 797.070, 602.181 866.053, 544.797 894.343, 544.352 1000.000, 658.257 1000.000, 735.924 "
fill = "none" stroke = "black"/>
</g>
<g>
<polygon points = ""
fill = "none" stroke = "black"/>
</g>
<g>
<polygon points = "894.343, 544.352 866.053, 544.797 890.554, 410.594 1000.000, 392.003 1000.000, 484.006 "
fill = "none" stroke = "black"/>
</g>
<g>
<polygon points = "470.411, 338.343 445.815, 318.439 435.335, 285.346 650.907, 256.863 649.025, 263.918 494.783, 344.497 "
fill = "none" stroke = "black"/>
</g>
<g>
<polygon points = ""
fill = "none" stroke = "black"/>
</g>
<g>
<polygon points = "490.549, 458.448 501.921, 466.974 536.201, 541.002 462.598, 656.588 413.757, 694.282 320.420, 598.357 "
fill = "none" stroke = "black"/>
</g>
<g>
<polygon points = ""
fill = "none" stroke = "black"/>
</g>
<g>
<polygon points = "404.440, 928.845 578.112, 828.466 579.210, 829.065 589.473, 845.620 622.754, 1000.000 438.146, 1000.000 "
fill = "none" stroke = "black"/>
</g>
<g>
<polygon points = ""
fill = "none" stroke = "black"/>
</g>
<g>
<polygon points = ""
fill = "none" stroke = "black"/>
</g>
<g>
<polygon points = "684.539, 662.299 687.849, 662.311 694.352, 664.989 781.811, 758.815 818.903, 821.323 750.389, 937.552 589.473, 845.620 579.210, 829.065 578.437, 827.053 577.779, 823.586 653.392, 688.967 "
fill = "none" stroke = "black"/>
</g>
<g>
<polygon points = ""
fill = "none" stroke = "black"/>
</g>
<g>
<polygon points = ""
fill = "none" stroke = "black"/>
</g>
<g>
<polygon points = ""
fill = "none" stroke = "black"/>
</g>
<g>
<polygon points = ""
fill = "none" stroke = "black"/>
</g>
<g>
<polygon points = ""
fill = "none" stroke = "black"/>
</g>
<g>
<polygon points = ""
fill = "none" stroke = "black"/>
</g>
<g>
<polygon points = ""
fill = "none" stroke = "black"/>
</g>
<g>
<polygon points = ""
fill = "none" stroke = "black"/>
</g>
</svg>
