<svg xmlns = "http://www.w3.org/2000/svg" width = "1000" height = "1000">
<g>
<polygon points = "632.117, 608.426 649.369, 604.406 644.118, 692.501 595.442, 741.128 545.313, 689.670 "
fill = "none" stroke = "black"/>
</g>
<g>
<polygon points = "737.279, 756.906 751.587, 746.510 830.933, 769.892 849.494, 797.681 842.715, 830.201 808.587, 849.718 745.294, 820.207 "
fill = "none" stroke = "black"/>
</g>
<g>
<polygon points = "193.431, 691.639 141.642, 652.115 133.570, 642.864 200.377, 603.455 237.446, 617.232 208.620, 695.133 "
fill = "none" stroke = "black"/>
</g>
<g>
<polygon points = "254.016, 614.406 286.518, 590.175 331.496, 585.061 409.001, 664.714 413.096, 708.337 408.917, 721.580 362.129, 753.243 278.880, 682.253 "
fill = "none" stroke = "black"/>
</g>
<g>
<polygon points = "677.019, 884.363 697.447, 876.363 709.854, 880.329 738.135, 923.769 718.053, 1000.000 707.478, 1000.000 639.942, 951.803 "
fill = "none" stroke = "black"/>
</g>
<g>
<polygon points = "216.142, 171.230 228.600, 92.853 249.287, 71.777 345.527, 63.125 368.501, 130.360 309.300, 187.394 "
fill = "none" stroke = "black"/>
</g>
<g>
<polygon points = "590.680, 768.784 571.435, 785.890 453.813, 762.586 408.917, 721.580 413.096, 708.337 516.582, 684.794 545.313, 689.670 595.442, 741.128 "
fill = "none" stroke = "black"/>
</g>
<g>
<polygon points = "589.487, 933.817 639.942, 951.803 707.478, 1000.000 580.847, 1000.000 "
fill = "none" stroke = "black"/>
</g>
<g>
<polygon points = "216.016, 485.272 237.601, 457.110 343.462, 532.422 331.496, 585.061 286.518, 590.175 "
fill = "none" stroke = "black"/>
</g>
<g>
<polygon points = "574.469, 474.184 642.383, 406.954 743.668, 406.960 748.854, 412.814 621.709, 510.605 "
fill = "none" stroke = "black"/>
</g>
<g>
<polygon points = "570.181, 191.468 451.544, 207.143 449.961, 193.657 541.294, 109.054 544.910, 109.193 594.094, 173.015 "
fill = "none" stroke = "black"/>
</g>
<g>
<polygon points = "812.833, 284.518 894.512, 241.114 1000.000, 277.877 1000.000, 320.758 "
fill = "none" stroke = "black"/>
</g>
<g>
<polygon points = "825.834, 581.699 842.412, 650.969 761.528, 693.029 689.126, 595.356 785.212, 542.457 "
fill = "none" stroke = "black"/>
</g>
<g>
<polygon points = "606.963, 304.339 633.906, 184.526 712.946, 153.090 755.204, 226.907 754.724, 234.213 704.791, 318.661 620.868, 310.947 "
fill = "none" stroke = "black"/>
</g>
<g>
<polygon points = "714.704, 62.967 583.135, 70.607 562.304, 0.000 740.240, 0.000 "
fill = "none" stroke = "black"/>
</g>
<g>
<polygon points = "47.114, 988.496 190.725, 944.711 271.471, 947.097 302.638, 990.254 301.430, 1000.000 34.910, 1000.000 "
fill = "none" stroke = "black"/>
</g>
<g>
<polygon points = "884.909, 121.628 814.408, 0.000 1000.000, 0.000 1000.000, 149.033 "
fill = "none" stroke = "black"/>
</g>
<g>
<polygon points = "832.297, 211.770 894.512, 241.114 812.833, 284.518 804.993, 284.333 754.724, 234.213 755.204, 226.907 "
fill = "none" stroke = "black"/>
</g>
<g>
<polygon points = "589.343, 869.035 661.786, 826.451 697.447, 876.363 677.019, 884.363 594.168, 891.791 "
fill = "none" stroke = "black"/>
</g>
<g>
<polygon points = "804.272, 438.057 785.212, 542.457 689.126, 595.356 657.544, 595.392 621.709, 510.605 748.854, 412.814 "
fill = "none" stroke = "black"/>
</g>
<g>
<polygon points = "951.132, 723.222 959.556, 728.910 927.675, 783.682 849.494, 797.681 830.933, 769.892 848.775, 734.033 "
fill = "none" stroke = "black"/>
</g>
<g>
<polygon points = "357.136, 759.255 230.356, 766.703 210.491, 697.548 278.880, 682.253 362.129, 753.243 "
fill = "none" stroke = "black"/>
</g>
<g>
<polygon points = "96.235, 28.262 110.165, 180.157 97.303, 187.489 57.079, 177.312 26.043, 0.000 74.353, 0.000 "
fill = "none" stroke = "black"/>
</g>
<g>
<polygon points = "492.588, 899.242 461.419, 917.257 448.591, 918.155 429.973, 885.432 468.944, 815.650 501.240, 861.659 "
fill = "none" stroke = "black"/>
</g>
<g>
<polygon points = "119.799, 640.733 105.290, 569.657 123.365, 566.713 192.645, 578.607 200.377, 603.455 133.570, 642.864 "
fill = "none" stroke = "black"/>
</g>
<g>
<polygon points = "836.617, 423.455 804.272, 438.057 748.854, 412.814 743.668, 406.960 704.791, 318.661 754.724, 234.213 804.993, 284.333 "
fill = "none" stroke = "black"/>
</g>
<g>
<polygon points = "335.301, 234.356 442.642, 274.921 456.278, 317.982 394.080, 375.785 290.535, 377.866 261.149, 375.771 228.384, 338.083 "
fill = "none" stroke = "black"/>
</g>
<g>
<polygon points = "493.002, 64.553 461.851, 62.141 388.221, 2.677 388.401, 0.000 525.462, 0.000 "
fill = "none" stroke = "black"/>
</g>
<g>
<polygon points = "388.221, 2.677 461.851, 62.141 426.914, 162.621 368.501, 130.360 345.527, 63.125 "
fill = "none" stroke = "black"/>
</g>
<g>
<polygon points = "302.638, 990.254 271.471, 947.097 239.497, 888.792 353.471, 784.096 364.351, 846.193 328.028, 963.681 "
fill = "none" stroke = "black"/>
</g>
<g>
<polygon points = "224.865, 335.797 136.725, 344.307 77.161, 308.133 97.303, 187.489 110.165, 180.157 207.046, 181.087 "
fill = "none" stroke = "black"/>
</g>
<g>
<polygon points = "430.249, 937.201 328.028, 963.681 364.351, 846.193 429.973, 885.432 448.591, 918.155 "
fill = "none" stroke = "black"/>
</g>
<g>
<polygon points = "501.240, 861.659 468.944, 815.650 453.813, 762.586 571.435, 785.890 571.559, 843.605 "
fill = "none" stroke = "black"/>
</g>
<g>
<polygon points = "894.512, 241.114 832.297, 211.770 867.024, 134.991 884.909, 121.628 1000.000, 149.033 1000.000, 277.877 "
fill = "none" stroke = "black"/>
</g>
<g>
<polygon points = "457.811, 595.257 400.896, 484.453 409.180, 465.845 520.673, 502.310 495.620, 573.967 "
fill = "none" stroke = "black"/>
</g>
<g>
<polygon points = "394.080, 375.785 456.278, 317.982 497.037, 328.273 554.058, 437.923 566.875, 471.599 520.673, 502.310 409.180, 465.845 "
fill = "none" stroke = "black"/>
</g>
<g>
<polygon points = "585.485, 927.422 594.168, 891.791 677.019, 884.363 639.942, 951.803 589.487, 933.817 "
fill = "none" stroke = "black"/>
</g>
<g>
<polygon points = "583.135, 70.607 714.704, 62.967 716.242, 138.161 712.946, 153.090 633.906, 184.526 594.094, 173.015 544.910, 109.193 "
fill = "none" stroke = "black"/>
</g>
<g>
<polygon points = "388.221, 2.677 345.527, 63.125 249.287, 71.777 238.748, 0.000 388.401, 0.000 "
fill = "none" stroke = "black"/>
</g>
<g>
<polygon points = "69.490, 446.738 92.904, 453.765 104.036, 479.558 78.655, 535.783 0.000, 560.187 0.000, 463.604 "
fill = "none" stroke = "black"/>
</g>
<g>
<polygon points = "57.079, 177.312 97.303, 187.489 77.161, 308.133 0.000, 321.539 0.000, 178.601 "
fill = "none" stroke = "black"/>
</g>
<g>
<polygon points = "302.638, 990.254 328.028, 963.681 430.249, 937.201 452.192, 1000.000 301.430, 1000.000 "
fill = "none" stroke = "black"/>
</g>
<g>
<polygon points = "904.824, 1000.000 829.198, 928.463 860.581, 852.990 987.431, 940.695 1000.000, 957.380 1000.000, 1000.000 "
fill = "none" stroke = "black"/>
</g>
<g>
<polygon points = "626.987, 372.193 620.868, 310.947 704.791, 318.661 743.668, 406.960 642.383, 406.954 "
fill = "none" stroke = "black"/>
</g>
<g>
<polygon points = "550.777, 604.350 632.117, 608.426 545.313, 689.670 516.582, 684.794 "
fill = "none" stroke = "black"/>
</g>
<g>
<polygon points = "345.902, 529.678 343.462, 532.422 237.601, 457.110 261.149, 375.771 290.535, 377.866 "
fill = "none" stroke = "black"/>
</g>
<g>
<polygon points = "51.845, 821.277 143.767, 794.758 172.575, 815.737 176.718, 848.303 164.718, 862.311 47.114, 988.496 34.910, 1000.000 27.357, 1000.000 "
fill = "none" stroke = "black"/>
</g>
<g>
<polygon points = "77.161, 308.133 136.725, 344.307 92.904, 453.765 69.490, 446.738 0.000, 365.439 0.000, 321.539 "
fill = "none" stroke = "black"/>
</g>
<g>
<polygon points = "660.696, 796.588 661.786, 826.451 589.343, 869.035 571.559, 843.605 571.435, 785.890 590.680, 768.784 "
fill = "none" stroke = "black"/>
</g>
<g>
<polygon points = "210.491, 697.548 208.620, 695.133 237.446, 617.232 254.016, 614.406 278.880, 682.253 "
fill = "none" stroke = "black"/>
</g>
<g>
<polygon points = "503.764, 984.522 549.868, 930.522 585.485, 927.422 589.487, 933.817 580.847, 1000.000 501.574, 1000.000 "
fill = "none" stroke = "black"/>
</g>
<g>
<polygon points = "228.600, 92.853 216.142, 171.230 207.046, 181.087 110.165, 180.157 96.235, 28.262 "
fill = "none" stroke = "black"/>
</g>
<g>
<polygon points = "785.011, 907.697 738.135, 923.769 709.854, 880.329 745.294, 820.207 808.587, 849.718 "
fill = "none" stroke = "black"/>
</g>
<g>
<polygon points = "141.642, 652.115 193.431, 691.639 148.231, 730.632 "
fill = "none" stroke = "black"/>
</g>
<g>
<polygon points = "164.718, 862.311 176.718, 848.303 239.497, 888.792 271.471, 947.097 190.725, 944.711 "
fill = "none" stroke = "black"/>
</g>
<g>
<polygon points = "718.889, 756.708 660.696, 796.588 590.680, 768.784 595.442, 741.128 644.118, 692.501 "
fill = "none" stroke = "black"/>
</g>
<g>
<polygon points = "884.909, 121.628 867.024, 134.991 716.242, 138.161 714.704, 62.967 740.240, 0.000 814.408, 0.000 "
fill = "none" stroke = "black"/>
</g>
<g>
<polygon points = "987.431, 940.695 860.581, 852.990 842.715, 830.201 849.494, 797.681 927.675, 783.682 "
fill = "none" stroke = "black"/>
</g>
<g>
<polygon points = "987.791, 549.369 894.439, 662.105 850.703, 656.997 842.412, 650.969 825.834, 581.699 "
fill = "none" stroke = "black"/>
</g>
<g>
<polygon points = "78.655, 535.783 104.036, 479.558 203.272, 491.929 194.208, 525.411 123.365, 566.713 105.290, 569.657 "
fill = "none" stroke = "black"/>
</g>
<g>
<polygon points = "78.655, 535.783 105.290, 569.657 119.799, 640.733 45.294, 691.340 0.000, 692.110 0.000, 560.187 "
fill = "none" stroke = "black"/>
</g>
<g>
<polygon points = "549.868, 930.522 492.588, 899.242 501.240, 861.659 571.559, 843.605 589.343, 869.035 594.168, 891.791 585.485, 927.422 "
fill = "none" stroke = "black"/>
</g>
<g>
<polygon points = "51.845, 821.277 27.357, 1000.000 0.000, 1000.000 0.000, 766.380 "
fill = "none" stroke = "black"/>
</g>
<g>
<polygon points = "129.531, 765.550 148.231, 730.632 193.431, 691.639 208.620, 695.133 210.491, 697.548 230.356, 766.703 172.575, 815.737 143.767, 794.758 "
fill = "none" stroke = "black"/>
</g>
<g>
<polygon points = "426.914, 162.621 449.961, 193.657 451.544, 207.143 442.642, 274.921 335.301, 234.356 309.300, 187.394 368.501, 130.360 "
fill = "none" stroke = "black"/>
</g>
<g>
<polygon points = "850.703, 656.997 848.775, 734.033 830.933, 769.892 751.587, 746.510 761.528, 693.029 842.412, 650.969 "
fill = "none" stroke = "black"/>
</g>
<g>
<polygon points = "45.294, 691.340 119.799, 640.733 133.570, 642.864 141.642, 652.115 148.231, 730.632 129.531, 765.550 "
fill = "none" stroke = "black"/>
</g>
<g>
<polygon points = "426.914, 162.621 461.851, 62.141 493.002, 64.553 541.294, 109.054 449.961, 193.657 "
fill = "none" stroke = "black"/>
</g>
<g>
<polygon points = "836.617, 423.455 804.993, 284.333 812.833, 284.518 1000.000, 320.758 1000.000, 395.702 "
fill = "none" stroke = "black"/>
</g>
<g>
<polygon points = "867.024, 134.991 832.297, 211.770 755.204, 226.907 712.946, 153.090 716.242, 138.161 "
fill = "none" stroke = "black"/>
</g>
<g>
<polygon points = "860.581, 852.990 829.198, 928.463 785.011, 907.697 808.587, 849.718 842.715, 830.201 "
fill = "none" stroke = "black"/>
</g>
<g>
<polygon points = "987.431, 940.695 927.675, 783.682 959.556, 728.910 1000.000, 719.808 1000.000, 957.380 "
fill = "none" stroke = "black"/>
</g>
<g>
<polygon points = "633.906, 184.526 606.963, 304.339 524.273, 317.916 570.181, 191.468 594.094, 173.015 "
fill = "none" stroke = "black"/>
</g>
<g>
<polygon points = "69.490, 446.738 0.000, 463.604 0.000, 365.439 "
fill = "none" stroke = "black"/>
</g>
<g>
<polygon points = "959.556, 728.910 951.132, 723.222 894.439, 662.105 987.791, 549.369 1000.000, 542.396 1000.000, 719.808 "
fill = "none" stroke = "black"/>
</g>
<g>
<polygon points = "409.180, 465.845 400.896, 484.453 345.902, 529.678 290.535, 377.866 394.080, 375.785 "
fill = "none" stroke = "black"/>
</g>
<g>
<polygon points = "249.287, 71.777 228.600, 92.853 96.235, 28.262 74.353, 0.000 238.748, 0.000 "
fill = "none" stroke = "black"/>
</g>
<g>
<polygon points = "353.471, 784.096 239.497, 888.792 176.718, 848.303 172.575, 815.737 230.356, 766.703 357.136, 759.255 "
fill = "none" stroke = "black"/>
</g>
<g>
<polygon points = "57.079, 177.312 0.000, 178.601 0.000, 0.000 26.043, 0.000 "
fill = "none" stroke = "black"/>
</g>
<g>
<polygon points = "554.058, 437.923 497.037, 328.273 524.273, 317.916 606.963, 304.339 620.868, 310.947 626.987, 372.193 "
fill = "none" stroke = "black"/>
</g>
<g>
<polygon points = "203.272, 491.929 104.036, 479.558 92.904, 453.765 136.725, 344.307 224.865, 335.797 228.384, 338.083 261.149, 375.771 237.601, 457.110 216.016, 485.272 "
fill = "none" stroke = "black"/>
</g>
<g>
<polygon points = "951.132, 723.222 848.775, 734.033 850.703, 656.997 894.439, 662.105 "
fill = "none" stroke = "black"/>
</g>
<g>
<polygon points = "657.544, 595.392 689.126, 595.356 761.528, 693.029 751.587, 746.510 737.279, 756.906 718.889, 756.708 644.118, 692.501 649.369, 604.406 "
fill = "none" stroke = "black"/>
</g>
<g>
<polygon points = "987.791, 549.369 825.834, 581.699 785.212, 542.457 804.272, 438.057 836.617, 423.455 1000.000, 395.702 1000.000, 542.396 "
fill = "none" stroke = "black"/>
</g>
<g>
<polygon points = "524.273, 317.916 497.037, 328.273 456.278, 317.982 442.642, 274.921 451.544, 207.143 570.181, 191.468 "
fill = "none" stroke = "black"/>
</g>
<g>
<polygon points = "224.865, 335.797 207.046, 181.087 216.142, 171.230 309.300, 187.394 335.301, 234.356 228.384, 338.083 "
fill = "none" stroke = "black"/>
</g>
<g>
<polygon points = "343.462, 532.422 345.902, 529.678 400.896, 484.453 457.811, 595.257 409.001, 664.714 331.496, 585.061 "
fill = "none" stroke = "black"/>
</g>
<g>
<polygon points = "566.875, 471.599 554.058, 437.923 626.987, 372.193 642.383, 406.954 574.469, 474.184 "
fill = "none" stroke = "black"/>
</g>
<g>
<polygon points = "461.419, 917.257 492.588, 899.242 549.868, 930.522 503.764, 984.522 "
fill = "none" stroke = "black"/>
</g>
<g>
<polygon points = "192.645, 578.607 194.208, 525.411 203.272, 491.929 216.016, 485.272 286.518, 590.175 254.016, 614.406 237.446, 617.232 200.377, 603.455 "
fill = "none" stroke = "black"/>
</g>
<g>
<polygon points = "364.351, 846.193 353.471, 784.096 357.136, 759.255 362.129, 753.243 408.917, 721.580 453.813, 762.586 468.944, 815.650 429.973, 885.432 "
fill = "none" stroke = "black"/>
</g>
<g>
<polygon points = "718.889, 756.708 737.279, 756.906 745.294, 820.207 709.854, 880.329 697.447, 876.363 661.786, 826.451 660.696, 796.588 "
fill = "none" stroke = "black"/>
</g>
<g>
<polygon points = "550.777, 604.350 495.620, 573.967 520.673, 502.310 566.875, 471.599 574.469, 474.184 621.709, 510.605 657.544, 595.392 649.369, 604.406 632.117, 608.426 "
fill = "none" stroke = "black"/>
</g>
<g>
<polygon points = "45.294, 691.340 129.531, 765.550 143.767, 794.758 51.845, 821.277 0.000, 766.380 0.000, 692.110 "
fill = "none" stroke = "black"/>
</g>
<g>
<polygon points = "457.811, 595.257 495.620, 573.967 550.777, 604.350 516.582, 684.794 413.096, 708.337 409.001, 664.714 "
fill = "none" stroke = "black"/>
</g>
<g>
<polygon points = "583.135, 70.607 544.910, 109.193 541.294, 109.054 493.002, 64.553 525.462, 0.000 562.304, 0.000 "
fill = "none" stroke = "black"/>
</g>
<g>
<polygon points = "785.011, 907.697 829.198, 928.463 904.824, 1000.000 718.053, 1000.000 738.135, 923.769 "
fill = "none" stroke = "black"/>
</g>
<g>
<polygon points = "430.249, 937.201 448.591, 918.155 461.419, 917.257 503.764, 984.522 501.574, 1000.000 452.192, 1000.000 "
fill = "none" stroke = "black"/>
</g>
<g>
<polygon points = "164.718, 862.311 190.725, 944.711 47.114, 988.496 "
fill = "none" stroke = "black"/>
</g>
<g>
<polygon points = "194.208, 525.411 192.645, 578.607 123.365, 566.713 "
fill = "none" stroke = "black"/>
</g>
</svg>
